<mxfile host="app.diagrams.net" agent="Mozilla/5.0 (Windows NT 10.0; Win64; x64) AppleWebKit/537.36 (KHTML, like Gecko) Chrome/131.0.0.0 Safari/537.36 Edg/131.0.0.0" version="26.0.5">
  <diagram name="Page-1" id="SdW673jrMxk2vKFcSP8q">
    <mxGraphModel dx="1447" dy="995" grid="1" gridSize="10" guides="1" tooltips="1" connect="1" arrows="1" fold="1" page="1" pageScale="1" pageWidth="850" pageHeight="1100" math="0" shadow="0">
      <root>
        <mxCell id="0" />
        <mxCell id="1" parent="0" />
        <mxCell id="r2B7SsZK2ajT2XGIuIDY-1" value="Kitty Clan Points Project" style="text;html=1;align=center;verticalAlign=middle;whiteSpace=wrap;rounded=1;strokeWidth=1;fontSize=16;" vertex="1" parent="1">
          <mxGeometry x="450" y="100" width="360" height="30" as="geometry" />
        </mxCell>
        <mxCell id="r2B7SsZK2ajT2XGIuIDY-2" value="Flow:&lt;div&gt;&lt;br&gt;&lt;/div&gt;&lt;div&gt;- User applies to join the clan after accepting our rules&lt;/div&gt;&lt;div&gt;- Admins have a channel called #new-members where they can approve or deny a request to join.&lt;/div&gt;&lt;div&gt;- On acceptance, user gets a google sheet created&lt;/div&gt;&lt;div&gt;- Users can submit points by supplying a screenshot&lt;/div&gt;&lt;div&gt;- Users can check their points &amp;amp; google sheet&lt;/div&gt;" style="text;html=1;align=left;verticalAlign=top;whiteSpace=wrap;rounded=1;" vertex="1" parent="1">
          <mxGeometry x="350" y="155" width="310" height="140" as="geometry" />
        </mxCell>
        <mxCell id="r2B7SsZK2ajT2XGIuIDY-9" style="edgeStyle=orthogonalEdgeStyle;rounded=1;orthogonalLoop=1;jettySize=auto;html=1;entryX=0.5;entryY=0;entryDx=0;entryDy=0;" edge="1" parent="1" target="r2B7SsZK2ajT2XGIuIDY-8">
          <mxGeometry relative="1" as="geometry">
            <mxPoint x="453" y="445" as="sourcePoint" />
          </mxGeometry>
        </mxCell>
        <mxCell id="r2B7SsZK2ajT2XGIuIDY-3" value="New member" style="shape=umlActor;verticalLabelPosition=bottom;verticalAlign=top;html=1;outlineConnect=0;rounded=1;" vertex="1" parent="1">
          <mxGeometry x="437.5" y="355" width="30" height="60" as="geometry" />
        </mxCell>
        <mxCell id="r2B7SsZK2ajT2XGIuIDY-8" value="Join Clan&lt;div&gt;&lt;br&gt;&lt;div&gt;Inputs:&lt;/div&gt;&lt;div&gt;- RSN&lt;/div&gt;&lt;/div&gt;" style="rounded=1;whiteSpace=wrap;html=1;" vertex="1" parent="1">
          <mxGeometry x="390" y="495" width="125" height="80" as="geometry" />
        </mxCell>
        <mxCell id="r2B7SsZK2ajT2XGIuIDY-10" value="" style="endArrow=none;dashed=1;html=1;dashPattern=1 3;strokeWidth=2;rounded=1;entryX=0.5;entryY=1;entryDx=0;entryDy=0;" edge="1" parent="1" target="r2B7SsZK2ajT2XGIuIDY-8">
          <mxGeometry width="50" height="50" relative="1" as="geometry">
            <mxPoint x="453" y="635" as="sourcePoint" />
            <mxPoint x="465" y="695" as="targetPoint" />
          </mxGeometry>
        </mxCell>
        <mxCell id="r2B7SsZK2ajT2XGIuIDY-11" value="" style="rounded=1;whiteSpace=wrap;html=1;" vertex="1" parent="1">
          <mxGeometry x="395" y="635" width="120" height="60" as="geometry" />
        </mxCell>
        <mxCell id="r2B7SsZK2ajT2XGIuIDY-12" value="#join-clan channel" style="text;html=1;align=center;verticalAlign=middle;whiteSpace=wrap;rounded=1;" vertex="1" parent="1">
          <mxGeometry x="525" y="520" width="120" height="25" as="geometry" />
        </mxCell>
        <mxCell id="r2B7SsZK2ajT2XGIuIDY-13" value="#new-members channel (admins only)" style="text;html=1;align=center;verticalAlign=middle;whiteSpace=wrap;rounded=1;" vertex="1" parent="1">
          <mxGeometry x="515" y="655" width="150" height="20" as="geometry" />
        </mxCell>
        <mxCell id="r2B7SsZK2ajT2XGIuIDY-14" value="Approve / deny" style="text;html=1;align=center;verticalAlign=middle;whiteSpace=wrap;rounded=1;" vertex="1" parent="1">
          <mxGeometry x="402.5" y="650" width="100" height="30" as="geometry" />
        </mxCell>
        <mxCell id="r2B7SsZK2ajT2XGIuIDY-15" value="Limit to 3 applications per user id, so dopa doesn&#39;t spam the join button" style="text;html=1;align=center;verticalAlign=middle;whiteSpace=wrap;rounded=1;fontStyle=2;" vertex="1" parent="1">
          <mxGeometry x="515" y="705" width="160" height="60" as="geometry" />
        </mxCell>
        <mxCell id="r2B7SsZK2ajT2XGIuIDY-17" value="Member&lt;div&gt;&lt;br&gt;&lt;/div&gt;&lt;div style=&quot;text-align: left;&quot;&gt;id: guid&lt;/div&gt;&lt;div style=&quot;text-align: left;&quot;&gt;discord_username: string&lt;/div&gt;&lt;div style=&quot;text-align: left;&quot;&gt;lastupdated: date&lt;/div&gt;&lt;div style=&quot;text-align: left;&quot;&gt;date_joined: date&lt;/div&gt;&lt;div style=&quot;text-align: left;&quot;&gt;osrs_names: string[]&lt;/div&gt;&lt;div style=&quot;text-align: left;&quot;&gt;point_history: Task[]&lt;/div&gt;&lt;div style=&quot;text-align: left;&quot;&gt;spreadsheet_url: string&lt;/div&gt;" style="shape=cylinder3;whiteSpace=wrap;html=1;boundedLbl=1;backgroundOutline=1;size=15;verticalAlign=top;fontSize=12;rounded=1;" vertex="1" parent="1">
          <mxGeometry x="120" y="315" width="170" height="185" as="geometry" />
        </mxCell>
        <mxCell id="r2B7SsZK2ajT2XGIuIDY-18" value="Entities" style="text;html=1;align=center;verticalAlign=middle;whiteSpace=wrap;rounded=1;" vertex="1" parent="1">
          <mxGeometry x="120" y="280" width="60" height="30" as="geometry" />
        </mxCell>
        <mxCell id="r2B7SsZK2ajT2XGIuIDY-19" value="Task&lt;br&gt;&lt;div&gt;&lt;br&gt;&lt;/div&gt;&lt;div style=&quot;text-align: left;&quot;&gt;id: guid&lt;/div&gt;&lt;div style=&quot;text-align: left;&quot;&gt;screenshot_url: string&lt;/div&gt;&lt;div style=&quot;text-align: left;&quot;&gt;date_achieved: date&lt;/div&gt;&lt;div style=&quot;text-align: left;&quot;&gt;point_amount: int&lt;/div&gt;" style="shape=cylinder3;whiteSpace=wrap;html=1;boundedLbl=1;backgroundOutline=1;size=15;rounded=1;" vertex="1" parent="1">
          <mxGeometry x="120" y="537.5" width="170" height="155" as="geometry" />
        </mxCell>
        <mxCell id="r2B7SsZK2ajT2XGIuIDY-42" style="edgeStyle=orthogonalEdgeStyle;rounded=1;orthogonalLoop=1;jettySize=auto;html=1;entryX=0.5;entryY=0;entryDx=0;entryDy=0;" edge="1" parent="1" source="r2B7SsZK2ajT2XGIuIDY-20" target="r2B7SsZK2ajT2XGIuIDY-41">
          <mxGeometry relative="1" as="geometry" />
        </mxCell>
        <mxCell id="r2B7SsZK2ajT2XGIuIDY-20" value="Send welcome message (?)" style="rounded=1;whiteSpace=wrap;html=1;" vertex="1" parent="1">
          <mxGeometry x="395" y="755" width="120" height="60" as="geometry" />
        </mxCell>
        <mxCell id="r2B7SsZK2ajT2XGIuIDY-21" value="" style="endArrow=none;dashed=1;html=1;dashPattern=1 3;strokeWidth=2;rounded=1;entryX=0.5;entryY=1;entryDx=0;entryDy=0;" edge="1" parent="1">
          <mxGeometry width="50" height="50" relative="1" as="geometry">
            <mxPoint x="454.58000000000004" y="755" as="sourcePoint" />
            <mxPoint x="454.58000000000004" y="695" as="targetPoint" />
          </mxGeometry>
        </mxCell>
        <mxCell id="r2B7SsZK2ajT2XGIuIDY-22" value="Joining the clan" style="text;html=1;align=center;verticalAlign=middle;whiteSpace=wrap;rounded=1;fontStyle=1" vertex="1" parent="1">
          <mxGeometry x="435" y="300" width="170" height="30" as="geometry" />
        </mxCell>
        <mxCell id="r2B7SsZK2ajT2XGIuIDY-23" value="Submitting Points" style="text;html=1;align=center;verticalAlign=middle;whiteSpace=wrap;rounded=1;fontStyle=1" vertex="1" parent="1">
          <mxGeometry x="822.5" y="300" width="170" height="30" as="geometry" />
        </mxCell>
        <mxCell id="r2B7SsZK2ajT2XGIuIDY-26" style="edgeStyle=orthogonalEdgeStyle;rounded=1;orthogonalLoop=1;jettySize=auto;html=1;entryX=0.5;entryY=0;entryDx=0;entryDy=0;" edge="1" parent="1" source="r2B7SsZK2ajT2XGIuIDY-24" target="r2B7SsZK2ajT2XGIuIDY-25">
          <mxGeometry relative="1" as="geometry" />
        </mxCell>
        <mxCell id="r2B7SsZK2ajT2XGIuIDY-24" value="Submit points channel" style="rounded=1;whiteSpace=wrap;html=1;" vertex="1" parent="1">
          <mxGeometry x="757.5" y="397.5" width="120" height="60" as="geometry" />
        </mxCell>
        <mxCell id="r2B7SsZK2ajT2XGIuIDY-27" style="edgeStyle=orthogonalEdgeStyle;rounded=1;orthogonalLoop=1;jettySize=auto;html=1;" edge="1" parent="1" source="r2B7SsZK2ajT2XGIuIDY-25">
          <mxGeometry relative="1" as="geometry">
            <mxPoint x="817.5" y="577.5" as="targetPoint" />
          </mxGeometry>
        </mxCell>
        <mxCell id="r2B7SsZK2ajT2XGIuIDY-25" value="/submit (task) (image)" style="text;html=1;align=center;verticalAlign=middle;whiteSpace=wrap;rounded=1;" vertex="1" parent="1">
          <mxGeometry x="750" y="497.5" width="135" height="40" as="geometry" />
        </mxCell>
        <mxCell id="r2B7SsZK2ajT2XGIuIDY-30" style="edgeStyle=orthogonalEdgeStyle;rounded=1;orthogonalLoop=1;jettySize=auto;html=1;" edge="1" parent="1" source="r2B7SsZK2ajT2XGIuIDY-28">
          <mxGeometry relative="1" as="geometry">
            <mxPoint x="952.5" y="692.5" as="targetPoint" />
          </mxGeometry>
        </mxCell>
        <mxCell id="r2B7SsZK2ajT2XGIuIDY-28" value="Message queue&lt;div&gt;send:&lt;/div&gt;&lt;div&gt;&lt;br&gt;&lt;/div&gt;&lt;div&gt;Member&lt;/div&gt;&lt;div&gt;Task&lt;/div&gt;&lt;div&gt;&lt;br&gt;&lt;/div&gt;&lt;div&gt;The screenshot_url will be the discord cdn url of the image. Upload to imgur later&lt;/div&gt;" style="rounded=1;whiteSpace=wrap;html=1;verticalAlign=top;" vertex="1" parent="1">
          <mxGeometry x="750" y="607.5" width="135" height="170" as="geometry" />
        </mxCell>
        <mxCell id="r2B7SsZK2ajT2XGIuIDY-31" style="edgeStyle=orthogonalEdgeStyle;rounded=1;orthogonalLoop=1;jettySize=auto;html=1;" edge="1" parent="1" source="r2B7SsZK2ajT2XGIuIDY-29">
          <mxGeometry relative="1" as="geometry">
            <mxPoint x="1010" y="617.5" as="targetPoint" />
          </mxGeometry>
        </mxCell>
        <mxCell id="r2B7SsZK2ajT2XGIuIDY-29" value="Process items in queue" style="text;html=1;align=center;verticalAlign=middle;whiteSpace=wrap;rounded=0;" vertex="1" parent="1">
          <mxGeometry x="952.5" y="657.5" width="115" height="80" as="geometry" />
        </mxCell>
        <mxCell id="r2B7SsZK2ajT2XGIuIDY-34" style="edgeStyle=orthogonalEdgeStyle;rounded=1;orthogonalLoop=1;jettySize=auto;html=1;" edge="1" parent="1" source="r2B7SsZK2ajT2XGIuIDY-32">
          <mxGeometry relative="1" as="geometry">
            <mxPoint x="1010" y="507.5" as="targetPoint" />
          </mxGeometry>
        </mxCell>
        <mxCell id="r2B7SsZK2ajT2XGIuIDY-32" value="Imgur upload and update screenshot_url" style="text;html=1;align=center;verticalAlign=middle;whiteSpace=wrap;rounded=0;" vertex="1" parent="1">
          <mxGeometry x="944" y="577.5" width="132" height="40" as="geometry" />
        </mxCell>
        <mxCell id="r2B7SsZK2ajT2XGIuIDY-35" value="Add to their google sheet" style="text;html=1;align=center;verticalAlign=middle;whiteSpace=wrap;rounded=0;" vertex="1" parent="1">
          <mxGeometry x="958.75" y="447.5" width="102.5" height="60" as="geometry" />
        </mxCell>
        <mxCell id="r2B7SsZK2ajT2XGIuIDY-41" value="&lt;div&gt;Create their google sheet&lt;/div&gt;" style="rounded=1;whiteSpace=wrap;html=1;verticalAlign=middle;" vertex="1" parent="1">
          <mxGeometry x="576.25" y="800" width="107.5" height="80" as="geometry" />
        </mxCell>
        <mxCell id="r2B7SsZK2ajT2XGIuIDY-45" value="Rank up request" style="text;html=1;align=center;verticalAlign=middle;whiteSpace=wrap;rounded=0;fontStyle=1" vertex="1" parent="1">
          <mxGeometry x="1180" y="295" width="120" height="40" as="geometry" />
        </mxCell>
        <mxCell id="r2B7SsZK2ajT2XGIuIDY-47" style="edgeStyle=orthogonalEdgeStyle;rounded=1;orthogonalLoop=1;jettySize=auto;html=1;" edge="1" parent="1" source="r2B7SsZK2ajT2XGIuIDY-46">
          <mxGeometry relative="1" as="geometry">
            <mxPoint x="1240" y="490" as="targetPoint" />
          </mxGeometry>
        </mxCell>
        <mxCell id="r2B7SsZK2ajT2XGIuIDY-46" value="Rank up request channel" style="rounded=1;whiteSpace=wrap;html=1;" vertex="1" parent="1">
          <mxGeometry x="1180" y="387.5" width="120" height="60" as="geometry" />
        </mxCell>
        <mxCell id="r2B7SsZK2ajT2XGIuIDY-49" style="edgeStyle=orthogonalEdgeStyle;rounded=1;orthogonalLoop=1;jettySize=auto;html=1;" edge="1" parent="1" source="r2B7SsZK2ajT2XGIuIDY-48">
          <mxGeometry relative="1" as="geometry">
            <mxPoint x="1240" y="570" as="targetPoint" />
          </mxGeometry>
        </mxCell>
        <mxCell id="r2B7SsZK2ajT2XGIuIDY-48" value="clicc button" style="text;html=1;align=center;verticalAlign=middle;whiteSpace=wrap;rounded=0;" vertex="1" parent="1">
          <mxGeometry x="1210" y="503" width="60" height="30" as="geometry" />
        </mxCell>
        <mxCell id="r2B7SsZK2ajT2XGIuIDY-51" style="edgeStyle=orthogonalEdgeStyle;rounded=1;orthogonalLoop=1;jettySize=auto;html=1;" edge="1" parent="1" source="r2B7SsZK2ajT2XGIuIDY-50">
          <mxGeometry relative="1" as="geometry">
            <mxPoint x="1240" y="680" as="targetPoint" />
          </mxGeometry>
        </mxCell>
        <mxCell id="r2B7SsZK2ajT2XGIuIDY-50" value="&quot;Your rank-up request has been sent!&quot;" style="text;html=1;align=center;verticalAlign=middle;whiteSpace=wrap;rounded=0;" vertex="1" parent="1">
          <mxGeometry x="1185" y="564" width="110" height="67" as="geometry" />
        </mxCell>
        <mxCell id="r2B7SsZK2ajT2XGIuIDY-53" value="Approve/deny&lt;div&gt;admin channel&lt;/div&gt;" style="rounded=0;whiteSpace=wrap;html=1;" vertex="1" parent="1">
          <mxGeometry x="1180" y="692.5" width="120" height="60" as="geometry" />
        </mxCell>
      </root>
    </mxGraphModel>
  </diagram>
</mxfile>
